<?xml version="1.0" encoding="utf-8"?><!DOCTYPE svg PUBLIC "-//W3C//DTD SVG 1.1//EN" "http://www.w3.org/Graphics/SVG/1.1/DTD/svg11.dtd"><svg version="1.1" xmlns="http://www.w3.org/2000/svg" xmlns:xlink="http://www.w3.org/1999/xlink" width="24" height="24" viewBox="0 0 24 24" data-tags="social-twitter-circular"><g fill="#444" transform="scale(0.0234375 0.0234375)"><path d="M651.904 438.741c15.275-9.429 25.472-22.229 30.421-38.571-14.891 7.936-29.739 13.312-44.587 16.341-13.312-14.336-30.208-21.632-50.432-21.632-19.797 0-36.48 6.955-50.133 20.437-13.525 13.568-20.395 30.123-20.395 49.408 0 5.845 0.725 11.093 2.219 15.531-58.368-2.048-106.624-26.197-144.683-72.789-6.443 11.392-9.685 22.997-9.685 34.987 0 24.661 10.411 44.203 31.147 58.581-11.819-0.981-22.229-4.011-31.147-8.917 0 17.621 5.163 32.341 15.573 45.312 10.368 12.8 23.765 20.992 40.064 24.448-5.931 1.536-12.16 2.261-18.56 2.261-5.973 0-10.112-0.512-12.629-1.579 4.437 14.379 12.629 25.984 24.491 34.901 11.819 8.96 25.472 13.653 40.832 14.080-25.216 19.84-54.144 29.611-86.827 29.611-8.021 0-13.653-0.085-17.067-0.725 32.171 20.864 68.011 31.275 107.563 31.275 40.576 0 76.459-10.283 107.605-30.848 31.147-20.437 54.229-45.653 68.992-75.392 14.848-29.653 22.229-60.544 22.229-92.757v-8.917c14.336-10.795 25.984-22.955 34.901-36.437-12.715 5.675-26.069 9.472-39.893 11.392z" /><path d="M512 896c-106.24 0-197.76-37.973-272.043-112.896-74.283-74.709-111.957-165.931-111.957-271.104 0-106.155 37.717-197.717 112.085-272 74.24-74.283 165.717-112 271.915-112 105.216 0 196.437 37.675 271.104 111.957 74.923 74.325 112.896 165.888 112.896 272.043 0 105.173-37.931 196.437-112.811 271.232-74.709 74.795-165.931 112.768-271.189 112.768zM512 213.333c-83.883 0-153.088 28.459-211.541 87.040-58.667 58.539-87.125 127.744-87.125 211.627 0 82.944 28.501 151.979 87.168 210.987 58.539 59.008 127.701 87.68 211.499 87.68 82.901 0 151.893-28.715 210.859-87.765 59.093-59.051 87.808-128.085 87.808-210.901 0-83.755-28.672-152.96-87.68-211.499-59.008-58.667-128-87.168-210.987-87.168z" /></g></svg>