<?xml version="1.0" encoding="utf-8"?><!DOCTYPE svg PUBLIC "-//W3C//DTD SVG 1.1//EN" "http://www.w3.org/Graphics/SVG/1.1/DTD/svg11.dtd"><svg version="1.1" xmlns="http://www.w3.org/2000/svg" xmlns:xlink="http://www.w3.org/1999/xlink" width="24" height="24" viewBox="0 0 24 24" data-tags="twitter"><g fill="#444" transform="scale(0.0234375 0.0234375)"><path d="M888.875 224.512c-7.936 10.325-16.683 20.267-26.283 29.696-9.941 9.899-14.805 24.192-11.861 38.741 1.579 7.765 2.56 17.237 2.603 27.051 0 224.256-103.637 382.763-247.893 464.981-112.939 64.384-253.355 83.413-393.472 47.787 53.12-15.403 104.96-39.296 153.301-72.107 6.272-4.224 11.648-10.368 15.019-17.963 9.557-21.547-0.128-46.763-21.675-56.32-118.357-52.608-176.213-125.056-203.477-195.968-17.792-46.251-23.296-93.781-22.187-137.685 0.896-34.603 5.888-66.56 11.861-93.099 16.811 14.635 34.261 30.123 52.693 44.288 87.509 67.285 197.291 105.771 315.52 102.699 23.168-0.64 41.643-19.499 41.643-42.667v-43.136c-0.085-7.637 0.384-15.232 1.451-22.741 4.821-34.389 21.504-66.944 49.579-91.349 30.933-26.923 69.803-38.741 107.776-36.096s74.795 19.755 101.717 50.688c10.752 12.203 27.691 17.749 44.075 12.971 9.856-2.859 19.755-6.101 29.653-9.728zM956.757 93.141c-31.573 22.272-64.981 39.509-97.579 51.413-39.723-35.669-89.216-55.552-139.776-59.093-59.648-4.139-121.003 14.464-169.685 56.832-44.203 38.443-70.485 89.941-78.080 143.872-1.579 11.307-2.347 22.699-2.304 34.133-82.005-6.059-157.568-36.267-219.733-84.053-33.067-25.429-62.379-55.851-86.784-90.283-13.653-19.2-40.277-23.765-59.477-10.112-6.571 4.651-11.392 10.795-14.293 17.451 0 0-5.632 12.757-12.16 32.427-4.779 14.379-10.283 33.067-15.232 55.040-6.955 30.805-12.885 68.352-13.909 109.696-1.323 52.352 5.12 111.445 27.819 170.496 29.141 75.733 83.883 148.395 176.939 205.781-66.944 30.976-138.453 44.331-207.915 41.259-23.552-1.024-43.477 17.195-44.501 40.747-0.725 16.597 8.107 31.403 21.888 39.168 209.28 116.267 444.843 114.261 625.749 11.136 172.373-98.176 290.944-285.867 290.944-539.051-0.043-7.125-0.341-14.080-0.981-20.864 42.923-47.573 71.509-103.637 85.163-161.323 5.419-22.912-8.789-45.909-31.701-51.328-12.373-2.944-24.747-0.128-34.432 6.656z" /></g></svg>